<mxfile host="app.diagrams.net" modified="2022-05-04T19:10:47.488Z" agent="5.0 (Windows)" etag="jb7Ahc08GQNd5nB_A0Ob" version="17.4.6" type="github">
  <diagram id="shnDngDQe-nJWOVilq9R" name="Page-1">
    <mxGraphModel dx="1422" dy="780" grid="1" gridSize="10" guides="1" tooltips="1" connect="1" arrows="1" fold="1" page="1" pageScale="1" pageWidth="850" pageHeight="1100" math="0" shadow="0">
      <root>
        <mxCell id="0" />
        <mxCell id="1" parent="0" />
      </root>
    </mxGraphModel>
  </diagram>
</mxfile>
